<mxfile host="app.diagrams.net" agent="Mozilla/5.0 (Windows NT 10.0; Win64; x64) AppleWebKit/537.36 (KHTML, like Gecko) Chrome/136.0.0.0 Safari/537.36" version="27.0.6">
  <diagram name="Page-1" id="w0_5oO9mhqA6GIY9lhRN">
    <mxGraphModel dx="2751" dy="2147" grid="1" gridSize="10" guides="1" tooltips="1" connect="1" arrows="1" fold="1" page="1" pageScale="1" pageWidth="850" pageHeight="1100" math="0" shadow="0">
      <root>
        <mxCell id="0" />
        <mxCell id="1" parent="0" />
        <mxCell id="dOjbrMyXO_0nYcFqkWmp-22" style="edgeStyle=orthogonalEdgeStyle;rounded=0;orthogonalLoop=1;jettySize=auto;html=1;exitX=0.5;exitY=1;exitDx=0;exitDy=0;entryX=0.5;entryY=0;entryDx=0;entryDy=0;" edge="1" parent="1" source="dOjbrMyXO_0nYcFqkWmp-15" target="dOjbrMyXO_0nYcFqkWmp-21">
          <mxGeometry relative="1" as="geometry" />
        </mxCell>
        <mxCell id="dOjbrMyXO_0nYcFqkWmp-15" value="Portfolio" style="swimlane;whiteSpace=wrap;html=1;" vertex="1" parent="1">
          <mxGeometry x="-290" y="-340" width="200" height="200" as="geometry" />
        </mxCell>
        <mxCell id="dOjbrMyXO_0nYcFqkWmp-17" value="name: String" style="text;html=1;align=center;verticalAlign=middle;resizable=0;points=[];autosize=1;strokeColor=none;fillColor=none;" vertex="1" parent="dOjbrMyXO_0nYcFqkWmp-15">
          <mxGeometry x="10" y="28" width="90" height="30" as="geometry" />
        </mxCell>
        <mxCell id="dOjbrMyXO_0nYcFqkWmp-19" value="assets: ArrayList&amp;lt;FIxedAsset&amp;gt;" style="text;html=1;align=center;verticalAlign=middle;resizable=0;points=[];autosize=1;strokeColor=none;fillColor=none;" vertex="1" parent="dOjbrMyXO_0nYcFqkWmp-15">
          <mxGeometry x="5" y="90" width="190" height="30" as="geometry" />
        </mxCell>
        <mxCell id="dOjbrMyXO_0nYcFqkWmp-20" value="+portfolio(name: String, owner: String&lt;div&gt;add(asset:Asset)&lt;/div&gt;&lt;div&gt;getValue():double&lt;/div&gt;" style="text;html=1;align=center;verticalAlign=middle;resizable=0;points=[];autosize=1;strokeColor=none;fillColor=none;" vertex="1" parent="dOjbrMyXO_0nYcFqkWmp-15">
          <mxGeometry x="-10" y="120" width="220" height="60" as="geometry" />
        </mxCell>
        <mxCell id="dOjbrMyXO_0nYcFqkWmp-52" value="owner : String" style="text;html=1;align=center;verticalAlign=middle;resizable=0;points=[];autosize=1;strokeColor=none;fillColor=none;" vertex="1" parent="dOjbrMyXO_0nYcFqkWmp-15">
          <mxGeometry x="5" y="58" width="100" height="30" as="geometry" />
        </mxCell>
        <mxCell id="dOjbrMyXO_0nYcFqkWmp-23" style="edgeStyle=orthogonalEdgeStyle;rounded=0;orthogonalLoop=1;jettySize=auto;html=1;" edge="1" parent="1" source="dOjbrMyXO_0nYcFqkWmp-21" target="dOjbrMyXO_0nYcFqkWmp-24">
          <mxGeometry relative="1" as="geometry">
            <mxPoint x="420" y="310" as="targetPoint" />
          </mxGeometry>
        </mxCell>
        <mxCell id="dOjbrMyXO_0nYcFqkWmp-64" style="edgeStyle=orthogonalEdgeStyle;rounded=0;orthogonalLoop=1;jettySize=auto;html=1;entryX=0;entryY=0.5;entryDx=0;entryDy=0;" edge="1" parent="1" source="dOjbrMyXO_0nYcFqkWmp-21" target="dOjbrMyXO_0nYcFqkWmp-27">
          <mxGeometry relative="1" as="geometry" />
        </mxCell>
        <mxCell id="dOjbrMyXO_0nYcFqkWmp-79" style="edgeStyle=orthogonalEdgeStyle;rounded=0;orthogonalLoop=1;jettySize=auto;html=1;entryX=0;entryY=0.5;entryDx=0;entryDy=0;" edge="1" parent="1" source="dOjbrMyXO_0nYcFqkWmp-21" target="dOjbrMyXO_0nYcFqkWmp-46">
          <mxGeometry relative="1" as="geometry" />
        </mxCell>
        <mxCell id="dOjbrMyXO_0nYcFqkWmp-21" value="Liquid Accounts" style="swimlane;whiteSpace=wrap;html=1;" vertex="1" parent="1">
          <mxGeometry x="-450" y="270" width="315" height="200" as="geometry" />
        </mxCell>
        <mxCell id="dOjbrMyXO_0nYcFqkWmp-75" value="name: String" style="text;html=1;align=center;verticalAlign=middle;resizable=0;points=[];autosize=1;strokeColor=none;fillColor=none;" vertex="1" parent="dOjbrMyXO_0nYcFqkWmp-21">
          <mxGeometry x="10" y="38" width="90" height="30" as="geometry" />
        </mxCell>
        <mxCell id="dOjbrMyXO_0nYcFqkWmp-76" value="AccountNumber: String" style="text;html=1;align=center;verticalAlign=middle;resizable=0;points=[];autosize=1;strokeColor=none;fillColor=none;" vertex="1" parent="dOjbrMyXO_0nYcFqkWmp-21">
          <mxGeometry y="78" width="150" height="30" as="geometry" />
        </mxCell>
        <mxCell id="dOjbrMyXO_0nYcFqkWmp-77" value="balance:&amp;nbsp; double" style="text;html=1;align=center;verticalAlign=middle;resizable=0;points=[];autosize=1;strokeColor=none;fillColor=none;" vertex="1" parent="dOjbrMyXO_0nYcFqkWmp-21">
          <mxGeometry x="10" y="120" width="110" height="30" as="geometry" />
        </mxCell>
        <mxCell id="dOjbrMyXO_0nYcFqkWmp-78" value="Constructor(String : name, String: accountNumber, double: balance)" style="text;html=1;align=center;verticalAlign=middle;resizable=0;points=[];autosize=1;strokeColor=none;fillColor=none;" vertex="1" parent="dOjbrMyXO_0nYcFqkWmp-21">
          <mxGeometry x="-10" y="160" width="390" height="30" as="geometry" />
        </mxCell>
        <mxCell id="dOjbrMyXO_0nYcFqkWmp-24" value="BankAccount" style="swimlane;whiteSpace=wrap;html=1;" vertex="1" parent="1">
          <mxGeometry x="70" y="50" width="250" height="200" as="geometry" />
        </mxCell>
        <mxCell id="dOjbrMyXO_0nYcFqkWmp-31" value="Deposit" style="text;html=1;align=center;verticalAlign=middle;resizable=0;points=[];autosize=1;strokeColor=none;fillColor=none;" vertex="1" parent="dOjbrMyXO_0nYcFqkWmp-24">
          <mxGeometry x="5" y="130" width="60" height="30" as="geometry" />
        </mxCell>
        <mxCell id="dOjbrMyXO_0nYcFqkWmp-30" value="Withdraw&lt;div&gt;&lt;br&gt;&lt;/div&gt;" style="text;html=1;align=center;verticalAlign=middle;resizable=0;points=[];autosize=1;strokeColor=none;fillColor=none;" vertex="1" parent="dOjbrMyXO_0nYcFqkWmp-24">
          <mxGeometry x="5" y="165" width="70" height="40" as="geometry" />
        </mxCell>
        <mxCell id="dOjbrMyXO_0nYcFqkWmp-53" value="getValue(): double" style="text;html=1;align=center;verticalAlign=middle;resizable=0;points=[];autosize=1;strokeColor=none;fillColor=none;" vertex="1" parent="dOjbrMyXO_0nYcFqkWmp-24">
          <mxGeometry x="90" y="160" width="120" height="30" as="geometry" />
        </mxCell>
        <mxCell id="dOjbrMyXO_0nYcFqkWmp-65" value="name: String" style="text;html=1;align=center;verticalAlign=middle;resizable=0;points=[];autosize=1;strokeColor=none;fillColor=none;" vertex="1" parent="dOjbrMyXO_0nYcFqkWmp-24">
          <mxGeometry y="28" width="90" height="30" as="geometry" />
        </mxCell>
        <mxCell id="dOjbrMyXO_0nYcFqkWmp-66" value="accountNumber: String" style="text;html=1;align=center;verticalAlign=middle;resizable=0;points=[];autosize=1;strokeColor=none;fillColor=none;" vertex="1" parent="dOjbrMyXO_0nYcFqkWmp-24">
          <mxGeometry y="50" width="150" height="30" as="geometry" />
        </mxCell>
        <mxCell id="dOjbrMyXO_0nYcFqkWmp-67" value="balance: double" style="text;html=1;align=center;verticalAlign=middle;resizable=0;points=[];autosize=1;strokeColor=none;fillColor=none;" vertex="1" parent="dOjbrMyXO_0nYcFqkWmp-24">
          <mxGeometry x="5" y="70" width="110" height="30" as="geometry" />
        </mxCell>
        <mxCell id="dOjbrMyXO_0nYcFqkWmp-68" value="Constructor(name,accountNumber, balance)" style="text;html=1;align=center;verticalAlign=middle;resizable=0;points=[];autosize=1;strokeColor=none;fillColor=none;" vertex="1" parent="dOjbrMyXO_0nYcFqkWmp-24">
          <mxGeometry y="100" width="260" height="30" as="geometry" />
        </mxCell>
        <mxCell id="dOjbrMyXO_0nYcFqkWmp-27" value="CreditCard" style="swimlane;whiteSpace=wrap;html=1;" vertex="1" parent="1">
          <mxGeometry x="260" y="350" width="200" height="200" as="geometry" />
        </mxCell>
        <mxCell id="dOjbrMyXO_0nYcFqkWmp-28" value="Charge : double" style="text;html=1;align=center;verticalAlign=middle;resizable=0;points=[];autosize=1;strokeColor=none;fillColor=none;" vertex="1" parent="dOjbrMyXO_0nYcFqkWmp-27">
          <mxGeometry x="-15" y="130" width="110" height="30" as="geometry" />
        </mxCell>
        <mxCell id="dOjbrMyXO_0nYcFqkWmp-29" value="Pay : double" style="text;html=1;align=center;verticalAlign=middle;resizable=0;points=[];autosize=1;strokeColor=none;fillColor=none;" vertex="1" parent="dOjbrMyXO_0nYcFqkWmp-27">
          <mxGeometry y="170" width="90" height="30" as="geometry" />
        </mxCell>
        <mxCell id="dOjbrMyXO_0nYcFqkWmp-54" value="getValue() : double" style="text;html=1;align=center;verticalAlign=middle;resizable=0;points=[];autosize=1;strokeColor=none;fillColor=none;" vertex="1" parent="dOjbrMyXO_0nYcFqkWmp-27">
          <mxGeometry x="75" y="170" width="120" height="30" as="geometry" />
        </mxCell>
        <mxCell id="dOjbrMyXO_0nYcFqkWmp-71" value="name: String" style="text;html=1;align=center;verticalAlign=middle;resizable=0;points=[];autosize=1;strokeColor=none;fillColor=none;" vertex="1" parent="dOjbrMyXO_0nYcFqkWmp-27">
          <mxGeometry x="-5" y="30" width="90" height="30" as="geometry" />
        </mxCell>
        <mxCell id="dOjbrMyXO_0nYcFqkWmp-72" value="AccountNumber: String" style="text;html=1;align=center;verticalAlign=middle;resizable=0;points=[];autosize=1;strokeColor=none;fillColor=none;" vertex="1" parent="dOjbrMyXO_0nYcFqkWmp-27">
          <mxGeometry y="60" width="150" height="30" as="geometry" />
        </mxCell>
        <mxCell id="dOjbrMyXO_0nYcFqkWmp-74" value="balance:&amp;nbsp; double" style="text;html=1;align=center;verticalAlign=middle;resizable=0;points=[];autosize=1;strokeColor=none;fillColor=none;" vertex="1" parent="dOjbrMyXO_0nYcFqkWmp-27">
          <mxGeometry y="90" width="110" height="30" as="geometry" />
        </mxCell>
        <mxCell id="dOjbrMyXO_0nYcFqkWmp-34" style="edgeStyle=orthogonalEdgeStyle;rounded=0;orthogonalLoop=1;jettySize=auto;html=1;exitX=0.25;exitY=1;exitDx=0;exitDy=0;" edge="1" parent="1" source="dOjbrMyXO_0nYcFqkWmp-32" target="dOjbrMyXO_0nYcFqkWmp-35">
          <mxGeometry relative="1" as="geometry">
            <mxPoint x="580" y="310" as="targetPoint" />
          </mxGeometry>
        </mxCell>
        <mxCell id="dOjbrMyXO_0nYcFqkWmp-36" style="edgeStyle=orthogonalEdgeStyle;rounded=0;orthogonalLoop=1;jettySize=auto;html=1;" edge="1" parent="1" source="dOjbrMyXO_0nYcFqkWmp-32" target="dOjbrMyXO_0nYcFqkWmp-37">
          <mxGeometry relative="1" as="geometry">
            <mxPoint x="730" y="220" as="targetPoint" />
          </mxGeometry>
        </mxCell>
        <mxCell id="dOjbrMyXO_0nYcFqkWmp-38" style="edgeStyle=orthogonalEdgeStyle;rounded=0;orthogonalLoop=1;jettySize=auto;html=1;" edge="1" parent="1" source="dOjbrMyXO_0nYcFqkWmp-32" target="dOjbrMyXO_0nYcFqkWmp-39">
          <mxGeometry relative="1" as="geometry">
            <mxPoint x="1100" y="290" as="targetPoint" />
          </mxGeometry>
        </mxCell>
        <mxCell id="dOjbrMyXO_0nYcFqkWmp-32" value="Fixed Assets" style="swimlane;whiteSpace=wrap;html=1;" vertex="1" parent="1">
          <mxGeometry x="710" y="-90" width="370" height="200" as="geometry" />
        </mxCell>
        <mxCell id="dOjbrMyXO_0nYcFqkWmp-35" value="Jewelry" style="swimlane;whiteSpace=wrap;html=1;" vertex="1" parent="1">
          <mxGeometry x="530" y="190" width="200" height="200" as="geometry" />
        </mxCell>
        <mxCell id="dOjbrMyXO_0nYcFqkWmp-37" value="Gold" style="swimlane;whiteSpace=wrap;html=1;" vertex="1" parent="1">
          <mxGeometry x="760" y="190" width="200" height="200" as="geometry" />
        </mxCell>
        <mxCell id="dOjbrMyXO_0nYcFqkWmp-39" value="House" style="swimlane;whiteSpace=wrap;html=1;" vertex="1" parent="1">
          <mxGeometry x="980" y="190" width="200" height="200" as="geometry" />
        </mxCell>
        <mxCell id="dOjbrMyXO_0nYcFqkWmp-80" style="edgeStyle=orthogonalEdgeStyle;rounded=0;orthogonalLoop=1;jettySize=auto;html=1;exitX=0;exitY=0.25;exitDx=0;exitDy=0;entryX=1;entryY=0.25;entryDx=0;entryDy=0;" edge="1" parent="1" source="dOjbrMyXO_0nYcFqkWmp-46" target="dOjbrMyXO_0nYcFqkWmp-15">
          <mxGeometry relative="1" as="geometry" />
        </mxCell>
        <mxCell id="dOjbrMyXO_0nYcFqkWmp-46" value="Valueables" style="swimlane;whiteSpace=wrap;html=1;" vertex="1" parent="1">
          <mxGeometry x="240" y="-220" width="200" height="200" as="geometry" />
        </mxCell>
        <mxCell id="dOjbrMyXO_0nYcFqkWmp-51" value="getValue() :double" style="text;html=1;align=center;verticalAlign=middle;resizable=0;points=[];autosize=1;strokeColor=none;fillColor=none;" vertex="1" parent="dOjbrMyXO_0nYcFqkWmp-46">
          <mxGeometry x="10" y="40" width="120" height="30" as="geometry" />
        </mxCell>
        <mxCell id="dOjbrMyXO_0nYcFqkWmp-55" style="edgeStyle=orthogonalEdgeStyle;rounded=0;orthogonalLoop=1;jettySize=auto;html=1;entryX=0.47;entryY=0.02;entryDx=0;entryDy=0;entryPerimeter=0;" edge="1" parent="1" source="dOjbrMyXO_0nYcFqkWmp-46" target="dOjbrMyXO_0nYcFqkWmp-24">
          <mxGeometry relative="1" as="geometry" />
        </mxCell>
        <mxCell id="dOjbrMyXO_0nYcFqkWmp-61" style="edgeStyle=orthogonalEdgeStyle;rounded=0;orthogonalLoop=1;jettySize=auto;html=1;entryX=0.425;entryY=0.04;entryDx=0;entryDy=0;entryPerimeter=0;" edge="1" parent="1" source="dOjbrMyXO_0nYcFqkWmp-46" target="dOjbrMyXO_0nYcFqkWmp-27">
          <mxGeometry relative="1" as="geometry" />
        </mxCell>
        <mxCell id="dOjbrMyXO_0nYcFqkWmp-81" style="edgeStyle=orthogonalEdgeStyle;rounded=0;orthogonalLoop=1;jettySize=auto;html=1;entryX=0.491;entryY=0.055;entryDx=0;entryDy=0;entryPerimeter=0;" edge="1" parent="1" source="dOjbrMyXO_0nYcFqkWmp-19" target="dOjbrMyXO_0nYcFqkWmp-32">
          <mxGeometry relative="1" as="geometry" />
        </mxCell>
      </root>
    </mxGraphModel>
  </diagram>
</mxfile>
